<mxfile modified="2024-02-23T10:17:48.720Z" host="app.diagrams.net" agent="Mozilla/5.0 (X11; Ubuntu; Linux x86_64; rv:122.0) Gecko/20100101 Firefox/122.0" etag="aT26lY0L5_twUSpV_in6" version="23.1.0" type="github">
  <diagram id="Ht1M8jgEwFfnCIfOTk4-" name="Page-1">
    <mxGraphModel dx="2287" dy="1120" grid="1" gridSize="10" guides="1" tooltips="1" connect="1" arrows="1" fold="1" page="1" pageScale="1" pageWidth="827" pageHeight="1169" math="0" shadow="0">
      <root>
        <mxCell id="0" />
        <mxCell id="1" parent="0" />
        <mxCell id="jZVaUwOg5UY3L9NAnvdq-71" value="AWS Cloud" style="points=[[0,0],[0.25,0],[0.5,0],[0.75,0],[1,0],[1,0.25],[1,0.5],[1,0.75],[1,1],[0.75,1],[0.5,1],[0.25,1],[0,1],[0,0.75],[0,0.5],[0,0.25]];outlineConnect=0;gradientColor=none;html=1;whiteSpace=wrap;fontSize=12;fontStyle=0;shape=mxgraph.aws4.group;grIcon=mxgraph.aws4.group_aws_cloud_alt;strokeColor=#232F3E;fillColor=none;verticalAlign=top;align=left;spacingLeft=30;fontColor=#232F3E;dashed=0;labelBackgroundColor=none;container=1;pointerEvents=0;collapsible=0;recursiveResize=0;" parent="1" vertex="1">
          <mxGeometry x="240" y="120" width="1040" height="1400" as="geometry" />
        </mxCell>
        <mxCell id="ZDBsu4EC3AdljTK3YI5a-2" value="Mumbai" style="points=[[0,0],[0.25,0],[0.5,0],[0.75,0],[1,0],[1,0.25],[1,0.5],[1,0.75],[1,1],[0.75,1],[0.5,1],[0.25,1],[0,1],[0,0.75],[0,0.5],[0,0.25]];outlineConnect=0;gradientColor=none;html=1;whiteSpace=wrap;fontSize=12;fontStyle=0;container=1;pointerEvents=0;collapsible=0;recursiveResize=0;shape=mxgraph.aws4.group;grIcon=mxgraph.aws4.group_region;strokeColor=#00A4A6;fillColor=none;verticalAlign=top;align=left;spacingLeft=30;fontColor=#147EBA;dashed=1;" vertex="1" parent="jZVaUwOg5UY3L9NAnvdq-71">
          <mxGeometry x="40" y="160" width="960" height="1200" as="geometry" />
        </mxCell>
        <mxCell id="ZDBsu4EC3AdljTK3YI5a-3" value="VPC" style="points=[[0,0],[0.25,0],[0.5,0],[0.75,0],[1,0],[1,0.25],[1,0.5],[1,0.75],[1,1],[0.75,1],[0.5,1],[0.25,1],[0,1],[0,0.75],[0,0.5],[0,0.25]];outlineConnect=0;gradientColor=none;html=1;whiteSpace=wrap;fontSize=12;fontStyle=0;container=1;pointerEvents=0;collapsible=0;recursiveResize=0;shape=mxgraph.aws4.group;grIcon=mxgraph.aws4.group_vpc2;strokeColor=#8C4FFF;fillColor=none;verticalAlign=top;align=left;spacingLeft=30;fontColor=#AAB7B8;dashed=0;" vertex="1" parent="ZDBsu4EC3AdljTK3YI5a-2">
          <mxGeometry x="40" y="50" width="880" height="1110" as="geometry" />
        </mxCell>
        <mxCell id="ZDBsu4EC3AdljTK3YI5a-5" value="&lt;font style=&quot;font-size: 15px;&quot;&gt;Internet Gateway&lt;/font&gt;" style="text;html=1;strokeColor=none;fillColor=none;align=center;verticalAlign=middle;whiteSpace=wrap;rounded=0;" vertex="1" parent="ZDBsu4EC3AdljTK3YI5a-3">
          <mxGeometry x="378" y="30" width="134" height="30" as="geometry" />
        </mxCell>
        <mxCell id="ZDBsu4EC3AdljTK3YI5a-15" value="Availability Zone" style="fillColor=none;strokeColor=#147EBA;dashed=1;verticalAlign=top;fontStyle=0;fontColor=#147EBA;whiteSpace=wrap;html=1;" vertex="1" parent="ZDBsu4EC3AdljTK3YI5a-3">
          <mxGeometry x="560.5" y="70" width="281" height="995" as="geometry" />
        </mxCell>
        <mxCell id="ZDBsu4EC3AdljTK3YI5a-16" value="Public subnet" style="points=[[0,0],[0.25,0],[0.5,0],[0.75,0],[1,0],[1,0.25],[1,0.5],[1,0.75],[1,1],[0.75,1],[0.5,1],[0.25,1],[0,1],[0,0.75],[0,0.5],[0,0.25]];outlineConnect=0;gradientColor=none;html=1;whiteSpace=wrap;fontSize=12;fontStyle=0;container=1;pointerEvents=0;collapsible=0;recursiveResize=0;shape=mxgraph.aws4.group;grIcon=mxgraph.aws4.group_security_group;grStroke=0;strokeColor=#7AA116;fillColor=#F2F6E8;verticalAlign=top;align=left;spacingLeft=30;fontColor=#248814;dashed=0;" vertex="1" parent="ZDBsu4EC3AdljTK3YI5a-3">
          <mxGeometry x="601" y="115" width="200" height="185" as="geometry" />
        </mxCell>
        <mxCell id="ZDBsu4EC3AdljTK3YI5a-17" value="" style="sketch=0;outlineConnect=0;fontColor=#232F3E;gradientColor=none;fillColor=#8C4FFF;strokeColor=none;dashed=0;verticalLabelPosition=bottom;verticalAlign=top;align=center;html=1;fontSize=12;fontStyle=0;aspect=fixed;pointerEvents=1;shape=mxgraph.aws4.nat_gateway;" vertex="1" parent="ZDBsu4EC3AdljTK3YI5a-16">
          <mxGeometry x="50" y="50" width="60" height="60" as="geometry" />
        </mxCell>
        <mxCell id="ZDBsu4EC3AdljTK3YI5a-67" value="&lt;font style=&quot;font-size: 15px;&quot;&gt;NAT Gateway&lt;/font&gt;" style="text;html=1;strokeColor=none;fillColor=none;align=center;verticalAlign=middle;whiteSpace=wrap;rounded=0;fontSize=12;fontFamily=Helvetica;fontColor=default;" vertex="1" parent="ZDBsu4EC3AdljTK3YI5a-16">
          <mxGeometry x="12.25" y="110" width="135.5" height="30" as="geometry" />
        </mxCell>
        <mxCell id="ZDBsu4EC3AdljTK3YI5a-18" value="Private subnet" style="points=[[0,0],[0.25,0],[0.5,0],[0.75,0],[1,0],[1,0.25],[1,0.5],[1,0.75],[1,1],[0.75,1],[0.5,1],[0.25,1],[0,1],[0,0.75],[0,0.5],[0,0.25]];outlineConnect=0;gradientColor=none;html=1;whiteSpace=wrap;fontSize=12;fontStyle=0;container=1;pointerEvents=0;collapsible=0;recursiveResize=0;shape=mxgraph.aws4.group;grIcon=mxgraph.aws4.group_security_group;grStroke=0;strokeColor=#00A4A6;fillColor=#E6F6F7;verticalAlign=top;align=left;spacingLeft=30;fontColor=#147EBA;dashed=0;" vertex="1" parent="ZDBsu4EC3AdljTK3YI5a-3">
          <mxGeometry x="601" y="355" width="200" height="195" as="geometry" />
        </mxCell>
        <mxCell id="ZDBsu4EC3AdljTK3YI5a-25" value="" style="outlineConnect=0;dashed=0;verticalLabelPosition=bottom;verticalAlign=top;align=center;html=1;shape=mxgraph.aws3.ec2;fillColor=#F58534;gradientColor=none;" vertex="1" parent="ZDBsu4EC3AdljTK3YI5a-3">
          <mxGeometry x="660" y="422.5" width="60" height="60" as="geometry" />
        </mxCell>
        <mxCell id="ZDBsu4EC3AdljTK3YI5a-32" value="Private subnet" style="points=[[0,0],[0.25,0],[0.5,0],[0.75,0],[1,0],[1,0.25],[1,0.5],[1,0.75],[1,1],[0.75,1],[0.5,1],[0.25,1],[0,1],[0,0.75],[0,0.5],[0,0.25]];outlineConnect=0;gradientColor=none;html=1;whiteSpace=wrap;fontSize=12;fontStyle=0;container=1;pointerEvents=0;collapsible=0;recursiveResize=0;shape=mxgraph.aws4.group;grIcon=mxgraph.aws4.group_security_group;grStroke=0;strokeColor=#00A4A6;fillColor=#E6F6F7;verticalAlign=top;align=left;spacingLeft=30;fontColor=#147EBA;dashed=0;" vertex="1" parent="ZDBsu4EC3AdljTK3YI5a-3">
          <mxGeometry x="601" y="595" width="200" height="205" as="geometry" />
        </mxCell>
        <mxCell id="ZDBsu4EC3AdljTK3YI5a-33" value="" style="outlineConnect=0;dashed=0;verticalLabelPosition=bottom;verticalAlign=top;align=center;html=1;shape=mxgraph.aws3.ec2;fillColor=#F58534;gradientColor=none;" vertex="1" parent="ZDBsu4EC3AdljTK3YI5a-32">
          <mxGeometry x="61" y="60" width="60" height="60" as="geometry" />
        </mxCell>
        <mxCell id="ZDBsu4EC3AdljTK3YI5a-39" value="Private subnet" style="points=[[0,0],[0.25,0],[0.5,0],[0.75,0],[1,0],[1,0.25],[1,0.5],[1,0.75],[1,1],[0.75,1],[0.5,1],[0.25,1],[0,1],[0,0.75],[0,0.5],[0,0.25]];outlineConnect=0;gradientColor=none;html=1;whiteSpace=wrap;fontSize=12;fontStyle=0;container=1;pointerEvents=0;collapsible=0;recursiveResize=0;shape=mxgraph.aws4.group;grIcon=mxgraph.aws4.group_security_group;grStroke=0;strokeColor=#00A4A6;fillColor=#E6F6F7;verticalAlign=top;align=left;spacingLeft=30;fontColor=#147EBA;dashed=0;" vertex="1" parent="ZDBsu4EC3AdljTK3YI5a-3">
          <mxGeometry x="601" y="835" width="200" height="205" as="geometry" />
        </mxCell>
        <mxCell id="ZDBsu4EC3AdljTK3YI5a-42" value="" style="sketch=0;outlineConnect=0;fontColor=#232F3E;gradientColor=none;fillColor=#C925D1;strokeColor=none;dashed=0;verticalLabelPosition=bottom;verticalAlign=top;align=center;html=1;fontSize=12;fontStyle=0;aspect=fixed;pointerEvents=1;shape=mxgraph.aws4.rds_mysql_instance;fontFamily=Helvetica;" vertex="1" parent="ZDBsu4EC3AdljTK3YI5a-3">
          <mxGeometry x="660.5" y="894" width="60" height="60" as="geometry" />
        </mxCell>
        <mxCell id="ZDBsu4EC3AdljTK3YI5a-44" value="RDS MySQL" style="text;html=1;strokeColor=none;fillColor=none;align=center;verticalAlign=middle;whiteSpace=wrap;rounded=0;fontSize=12;fontFamily=Helvetica;fontColor=default;" vertex="1" parent="ZDBsu4EC3AdljTK3YI5a-3">
          <mxGeometry x="635.5" y="964" width="110" height="30" as="geometry" />
        </mxCell>
        <mxCell id="ZDBsu4EC3AdljTK3YI5a-9" value="Public subnet" style="points=[[0,0],[0.25,0],[0.5,0],[0.75,0],[1,0],[1,0.25],[1,0.5],[1,0.75],[1,1],[0.75,1],[0.5,1],[0.25,1],[0,1],[0,0.75],[0,0.5],[0,0.25]];outlineConnect=0;gradientColor=none;html=1;whiteSpace=wrap;fontSize=12;fontStyle=0;container=1;pointerEvents=0;collapsible=0;recursiveResize=0;shape=mxgraph.aws4.group;grIcon=mxgraph.aws4.group_security_group;grStroke=0;strokeColor=#7AA116;fillColor=#F2F6E8;verticalAlign=top;align=left;spacingLeft=30;fontColor=#248814;dashed=0;" vertex="1" parent="ZDBsu4EC3AdljTK3YI5a-3">
          <mxGeometry x="90" y="120" width="200" height="185" as="geometry" />
        </mxCell>
        <mxCell id="ZDBsu4EC3AdljTK3YI5a-10" value="" style="sketch=0;outlineConnect=0;fontColor=#232F3E;gradientColor=none;fillColor=#8C4FFF;strokeColor=none;dashed=0;verticalLabelPosition=bottom;verticalAlign=top;align=center;html=1;fontSize=12;fontStyle=0;aspect=fixed;pointerEvents=1;shape=mxgraph.aws4.nat_gateway;" vertex="1" parent="ZDBsu4EC3AdljTK3YI5a-9">
          <mxGeometry x="50" y="45" width="60" height="60" as="geometry" />
        </mxCell>
        <mxCell id="ZDBsu4EC3AdljTK3YI5a-8" value="Private subnet" style="points=[[0,0],[0.25,0],[0.5,0],[0.75,0],[1,0],[1,0.25],[1,0.5],[1,0.75],[1,1],[0.75,1],[0.5,1],[0.25,1],[0,1],[0,0.75],[0,0.5],[0,0.25]];outlineConnect=0;gradientColor=none;html=1;whiteSpace=wrap;fontSize=12;fontStyle=0;container=1;pointerEvents=0;collapsible=0;recursiveResize=0;shape=mxgraph.aws4.group;grIcon=mxgraph.aws4.group_security_group;grStroke=0;strokeColor=#00A4A6;fillColor=#E6F6F7;verticalAlign=top;align=left;spacingLeft=30;fontColor=#147EBA;dashed=0;" vertex="1" parent="ZDBsu4EC3AdljTK3YI5a-3">
          <mxGeometry x="90" y="360" width="200" height="205" as="geometry" />
        </mxCell>
        <mxCell id="ZDBsu4EC3AdljTK3YI5a-24" value="" style="outlineConnect=0;dashed=0;verticalLabelPosition=bottom;verticalAlign=top;align=center;html=1;shape=mxgraph.aws3.ec2;fillColor=#F58534;gradientColor=none;" vertex="1" parent="ZDBsu4EC3AdljTK3YI5a-8">
          <mxGeometry x="61" y="60" width="60" height="60" as="geometry" />
        </mxCell>
        <mxCell id="ZDBsu4EC3AdljTK3YI5a-13" value="Private subnet" style="points=[[0,0],[0.25,0],[0.5,0],[0.75,0],[1,0],[1,0.25],[1,0.5],[1,0.75],[1,1],[0.75,1],[0.5,1],[0.25,1],[0,1],[0,0.75],[0,0.5],[0,0.25]];outlineConnect=0;gradientColor=none;html=1;whiteSpace=wrap;fontSize=12;fontStyle=0;container=1;pointerEvents=0;collapsible=0;recursiveResize=0;shape=mxgraph.aws4.group;grIcon=mxgraph.aws4.group_security_group;grStroke=0;strokeColor=#00A4A6;fillColor=#E6F6F7;verticalAlign=top;align=left;spacingLeft=30;fontColor=#147EBA;dashed=0;" vertex="1" parent="ZDBsu4EC3AdljTK3YI5a-3">
          <mxGeometry x="90" y="840" width="200" height="205" as="geometry" />
        </mxCell>
        <mxCell id="ZDBsu4EC3AdljTK3YI5a-27" value="&lt;font style=&quot;font-size: 15px;&quot;&gt;Moodle App Server 1&lt;/font&gt;" style="text;html=1;strokeColor=none;fillColor=none;align=center;verticalAlign=middle;whiteSpace=wrap;rounded=0;fontSize=12;fontFamily=Helvetica;fontColor=default;" vertex="1" parent="ZDBsu4EC3AdljTK3YI5a-3">
          <mxGeometry x="121.5" y="480" width="158.5" height="30" as="geometry" />
        </mxCell>
        <mxCell id="ZDBsu4EC3AdljTK3YI5a-30" value="Private subnet" style="points=[[0,0],[0.25,0],[0.5,0],[0.75,0],[1,0],[1,0.25],[1,0.5],[1,0.75],[1,1],[0.75,1],[0.5,1],[0.25,1],[0,1],[0,0.75],[0,0.5],[0,0.25]];outlineConnect=0;gradientColor=none;html=1;whiteSpace=wrap;fontSize=12;fontStyle=0;container=1;pointerEvents=0;collapsible=0;recursiveResize=0;shape=mxgraph.aws4.group;grIcon=mxgraph.aws4.group_security_group;grStroke=0;strokeColor=#00A4A6;fillColor=#E6F6F7;verticalAlign=top;align=left;spacingLeft=30;fontColor=#147EBA;dashed=0;" vertex="1" parent="ZDBsu4EC3AdljTK3YI5a-3">
          <mxGeometry x="90" y="600" width="200" height="205" as="geometry" />
        </mxCell>
        <mxCell id="ZDBsu4EC3AdljTK3YI5a-31" value="" style="outlineConnect=0;dashed=0;verticalLabelPosition=bottom;verticalAlign=top;align=center;html=1;shape=mxgraph.aws3.ec2;fillColor=#F58534;gradientColor=none;" vertex="1" parent="ZDBsu4EC3AdljTK3YI5a-30">
          <mxGeometry x="61" y="60" width="60" height="60" as="geometry" />
        </mxCell>
        <mxCell id="ZDBsu4EC3AdljTK3YI5a-36" value="&lt;font style=&quot;font-size: 15px;&quot;&gt;Moodle App Server 2&lt;/font&gt;" style="text;html=1;strokeColor=none;fillColor=none;align=center;verticalAlign=middle;whiteSpace=wrap;rounded=0;fontSize=12;fontFamily=Helvetica;fontColor=default;" vertex="1" parent="ZDBsu4EC3AdljTK3YI5a-3">
          <mxGeometry x="124.5" y="725" width="145.5" height="30" as="geometry" />
        </mxCell>
        <mxCell id="ZDBsu4EC3AdljTK3YI5a-41" value="" style="sketch=0;outlineConnect=0;fontColor=#232F3E;gradientColor=none;fillColor=#C925D1;strokeColor=none;dashed=0;verticalLabelPosition=bottom;verticalAlign=top;align=center;html=1;fontSize=12;fontStyle=0;aspect=fixed;pointerEvents=1;shape=mxgraph.aws4.rds_mysql_instance;fontFamily=Helvetica;" vertex="1" parent="ZDBsu4EC3AdljTK3YI5a-3">
          <mxGeometry x="151" y="889" width="60" height="60" as="geometry" />
        </mxCell>
        <mxCell id="ZDBsu4EC3AdljTK3YI5a-43" value="RDS MySQL" style="text;html=1;strokeColor=none;fillColor=none;align=center;verticalAlign=middle;whiteSpace=wrap;rounded=0;fontSize=12;fontFamily=Helvetica;fontColor=default;" vertex="1" parent="ZDBsu4EC3AdljTK3YI5a-3">
          <mxGeometry x="124.5" y="959" width="110" height="30" as="geometry" />
        </mxCell>
        <mxCell id="ZDBsu4EC3AdljTK3YI5a-61" value="Auto Scaling group" style="points=[[0,0],[0.25,0],[0.5,0],[0.75,0],[1,0],[1,0.25],[1,0.5],[1,0.75],[1,1],[0.75,1],[0.5,1],[0.25,1],[0,1],[0,0.75],[0,0.5],[0,0.25]];outlineConnect=0;gradientColor=none;html=1;whiteSpace=wrap;fontSize=12;fontStyle=0;container=1;pointerEvents=0;collapsible=0;recursiveResize=0;shape=mxgraph.aws4.groupCenter;grIcon=mxgraph.aws4.group_auto_scaling_group;grStroke=1;strokeColor=#D86613;fillColor=none;verticalAlign=top;align=center;fontColor=#D86613;dashed=1;spacingTop=25;fontFamily=Helvetica;" vertex="1" parent="ZDBsu4EC3AdljTK3YI5a-3">
          <mxGeometry x="110" y="642.5" width="670" height="130" as="geometry" />
        </mxCell>
        <mxCell id="ZDBsu4EC3AdljTK3YI5a-37" value="&lt;font style=&quot;font-size: 15px;&quot;&gt;Moodle App Server 2&lt;/font&gt;" style="text;html=1;strokeColor=none;fillColor=none;align=center;verticalAlign=middle;whiteSpace=wrap;rounded=0;fontSize=12;fontFamily=Helvetica;fontColor=default;" vertex="1" parent="ZDBsu4EC3AdljTK3YI5a-61">
          <mxGeometry x="512.25" y="82.5" width="156.5" height="30" as="geometry" />
        </mxCell>
        <mxCell id="ZDBsu4EC3AdljTK3YI5a-63" value="Auto Scaling group" style="points=[[0,0],[0.25,0],[0.5,0],[0.75,0],[1,0],[1,0.25],[1,0.5],[1,0.75],[1,1],[0.75,1],[0.5,1],[0.25,1],[0,1],[0,0.75],[0,0.5],[0,0.25]];outlineConnect=0;gradientColor=none;html=1;whiteSpace=wrap;fontSize=12;fontStyle=0;container=1;pointerEvents=0;collapsible=0;recursiveResize=0;shape=mxgraph.aws4.groupCenter;grIcon=mxgraph.aws4.group_auto_scaling_group;grStroke=1;strokeColor=#D86613;fillColor=none;verticalAlign=top;align=center;fontColor=#D86613;dashed=1;spacingTop=25;fontFamily=Helvetica;" vertex="1" parent="ZDBsu4EC3AdljTK3YI5a-3">
          <mxGeometry x="110" y="402.5" width="661.25" height="130" as="geometry" />
        </mxCell>
        <mxCell id="ZDBsu4EC3AdljTK3YI5a-28" value="&lt;font style=&quot;font-size: 15px;&quot;&gt;Moodle App Server 1&lt;/font&gt;" style="text;html=1;strokeColor=none;fillColor=none;align=center;verticalAlign=middle;whiteSpace=wrap;rounded=0;fontSize=12;fontFamily=Helvetica;fontColor=default;" vertex="1" parent="ZDBsu4EC3AdljTK3YI5a-63">
          <mxGeometry x="512.25" y="72.5" width="149" height="30" as="geometry" />
        </mxCell>
        <mxCell id="jZVaUwOg5UY3L9NAnvdq-147" value="" style="edgeStyle=elbowEdgeStyle;rounded=0;orthogonalLoop=1;jettySize=auto;html=1;endArrow=open;endFill=0;strokeColor=#545B64;strokeWidth=2;fontSize=14;" parent="ZDBsu4EC3AdljTK3YI5a-3" edge="1">
          <mxGeometry relative="1" as="geometry">
            <mxPoint x="439.5" y="219.99931819731387" as="sourcePoint" />
            <mxPoint x="439.999090909091" y="395.0000000000002" as="targetPoint" />
          </mxGeometry>
        </mxCell>
        <mxCell id="ZDBsu4EC3AdljTK3YI5a-38" value="" style="edgeStyle=elbowEdgeStyle;rounded=0;orthogonalLoop=1;jettySize=auto;html=1;endArrow=open;endFill=0;strokeColor=#545B64;strokeWidth=2;fontSize=14;dashed=1;" edge="1" parent="ZDBsu4EC3AdljTK3YI5a-3">
          <mxGeometry relative="1" as="geometry">
            <mxPoint x="439.5" y="532.5" as="sourcePoint" />
            <mxPoint x="439.5" y="642.5" as="targetPoint" />
            <Array as="points">
              <mxPoint x="439.5" y="642.5" />
            </Array>
          </mxGeometry>
        </mxCell>
        <mxCell id="ZDBsu4EC3AdljTK3YI5a-65" value="&lt;font style=&quot;font-size: 15px;&quot;&gt;Application Load Balancer&lt;/font&gt;" style="text;html=1;strokeColor=none;fillColor=none;align=center;verticalAlign=middle;whiteSpace=wrap;rounded=0;fontSize=12;fontFamily=Helvetica;fontColor=default;" vertex="1" parent="ZDBsu4EC3AdljTK3YI5a-3">
          <mxGeometry x="340" y="240" width="190" height="30" as="geometry" />
        </mxCell>
        <mxCell id="ZDBsu4EC3AdljTK3YI5a-66" value="&lt;font style=&quot;font-size: 15px;&quot;&gt;NAT Gateway&lt;/font&gt;" style="text;html=1;strokeColor=none;fillColor=none;align=center;verticalAlign=middle;whiteSpace=wrap;rounded=0;fontSize=12;fontFamily=Helvetica;fontColor=default;" vertex="1" parent="ZDBsu4EC3AdljTK3YI5a-3">
          <mxGeometry x="94" y="225" width="138" height="30" as="geometry" />
        </mxCell>
        <mxCell id="ZDBsu4EC3AdljTK3YI5a-4" value="" style="sketch=0;outlineConnect=0;fontColor=#232F3E;gradientColor=none;fillColor=#8C4FFF;strokeColor=none;dashed=0;verticalLabelPosition=bottom;verticalAlign=top;align=center;html=1;fontSize=12;fontStyle=0;aspect=fixed;pointerEvents=1;shape=mxgraph.aws4.internet_gateway;" vertex="1" parent="ZDBsu4EC3AdljTK3YI5a-3">
          <mxGeometry x="400" y="-40" width="70" height="70" as="geometry" />
        </mxCell>
        <mxCell id="ZDBsu4EC3AdljTK3YI5a-6" value="Availability Zone" style="fillColor=none;strokeColor=#147EBA;dashed=1;verticalAlign=top;fontStyle=0;fontColor=#147EBA;whiteSpace=wrap;html=1;" vertex="1" parent="ZDBsu4EC3AdljTK3YI5a-3">
          <mxGeometry x="42" y="70" width="275" height="995" as="geometry" />
        </mxCell>
        <mxCell id="ZDBsu4EC3AdljTK3YI5a-50" value="" style="sketch=0;points=[[0,0,0],[0.25,0,0],[0.5,0,0],[0.75,0,0],[1,0,0],[0,1,0],[0.25,1,0],[0.5,1,0],[0.75,1,0],[1,1,0],[0,0.25,0],[0,0.5,0],[0,0.75,0],[1,0.25,0],[1,0.5,0],[1,0.75,0]];outlineConnect=0;fontColor=#232F3E;fillColor=#DD344C;strokeColor=#ffffff;dashed=0;verticalLabelPosition=bottom;verticalAlign=top;align=center;html=1;fontSize=12;fontStyle=0;aspect=fixed;shape=mxgraph.aws4.resourceIcon;resIcon=mxgraph.aws4.certificate_manager_3;fontFamily=Helvetica;" vertex="1" parent="ZDBsu4EC3AdljTK3YI5a-2">
          <mxGeometry x="680" y="-30" width="70" height="70" as="geometry" />
        </mxCell>
        <mxCell id="ZDBsu4EC3AdljTK3YI5a-51" value="&lt;font style=&quot;font-size: 15px;&quot;&gt;Certificate Manager&lt;/font&gt;" style="text;html=1;strokeColor=none;fillColor=none;align=center;verticalAlign=middle;whiteSpace=wrap;rounded=0;fontSize=12;fontFamily=Helvetica;fontColor=default;" vertex="1" parent="ZDBsu4EC3AdljTK3YI5a-2">
          <mxGeometry x="740" y="-10" width="190" height="30" as="geometry" />
        </mxCell>
        <mxCell id="ZDBsu4EC3AdljTK3YI5a-59" style="edgeStyle=orthogonalEdgeStyle;rounded=0;orthogonalLoop=1;jettySize=auto;html=1;fontFamily=Helvetica;fontSize=12;fontColor=default;" edge="1" parent="jZVaUwOg5UY3L9NAnvdq-71" source="ZDBsu4EC3AdljTK3YI5a-45" target="ZDBsu4EC3AdljTK3YI5a-47">
          <mxGeometry relative="1" as="geometry" />
        </mxCell>
        <mxCell id="ZDBsu4EC3AdljTK3YI5a-45" value="" style="sketch=0;points=[[0,0,0],[0.25,0,0],[0.5,0,0],[0.75,0,0],[1,0,0],[0,1,0],[0.25,1,0],[0.5,1,0],[0.75,1,0],[1,1,0],[0,0.25,0],[0,0.5,0],[0,0.75,0],[1,0.25,0],[1,0.5,0],[1,0.75,0]];outlineConnect=0;fontColor=#232F3E;fillColor=#8C4FFF;strokeColor=#ffffff;dashed=0;verticalLabelPosition=bottom;verticalAlign=top;align=center;html=1;fontSize=12;fontStyle=0;aspect=fixed;shape=mxgraph.aws4.resourceIcon;resIcon=mxgraph.aws4.route_53;fontFamily=Helvetica;" vertex="1" parent="jZVaUwOg5UY3L9NAnvdq-71">
          <mxGeometry x="220" y="58" width="70" height="70" as="geometry" />
        </mxCell>
        <mxCell id="ZDBsu4EC3AdljTK3YI5a-46" value="&lt;font style=&quot;font-size: 15px;&quot;&gt;Amazon Route 53&lt;/font&gt;" style="text;html=1;strokeColor=none;fillColor=none;align=center;verticalAlign=middle;whiteSpace=wrap;rounded=0;fontSize=12;fontFamily=Helvetica;fontColor=default;" vertex="1" parent="jZVaUwOg5UY3L9NAnvdq-71">
          <mxGeometry x="192" y="128" width="126" height="30" as="geometry" />
        </mxCell>
        <mxCell id="ZDBsu4EC3AdljTK3YI5a-48" value="&lt;font style=&quot;font-size: 15px;&quot;&gt;Amazon Cloudfront&lt;/font&gt;" style="text;html=1;strokeColor=none;fillColor=none;align=center;verticalAlign=middle;whiteSpace=wrap;rounded=0;fontSize=12;fontFamily=Helvetica;fontColor=default;" vertex="1" parent="jZVaUwOg5UY3L9NAnvdq-71">
          <mxGeometry x="450" y="33" width="170" height="30" as="geometry" />
        </mxCell>
        <mxCell id="ZDBsu4EC3AdljTK3YI5a-21" value="" style="sketch=0;outlineConnect=0;fontColor=#232F3E;gradientColor=none;fillColor=#8C4FFF;strokeColor=none;dashed=0;verticalLabelPosition=bottom;verticalAlign=top;align=center;html=1;fontSize=12;fontStyle=0;aspect=fixed;pointerEvents=1;shape=mxgraph.aws4.application_load_balancer;" vertex="1" parent="jZVaUwOg5UY3L9NAnvdq-71">
          <mxGeometry x="490" y="370" width="70" height="70" as="geometry" />
        </mxCell>
        <mxCell id="ZDBsu4EC3AdljTK3YI5a-23" value="" style="edgeStyle=elbowEdgeStyle;rounded=0;orthogonalLoop=1;jettySize=auto;html=1;endArrow=open;endFill=0;strokeColor=#545B64;strokeWidth=2;fontSize=14;" edge="1" parent="jZVaUwOg5UY3L9NAnvdq-71">
          <mxGeometry relative="1" as="geometry">
            <mxPoint x="520" y="230" as="sourcePoint" />
            <mxPoint x="519.999090909091" y="363.5000000000002" as="targetPoint" />
          </mxGeometry>
        </mxCell>
        <mxCell id="ZDBsu4EC3AdljTK3YI5a-60" style="edgeStyle=orthogonalEdgeStyle;rounded=0;orthogonalLoop=1;jettySize=auto;html=1;fontFamily=Helvetica;fontSize=12;fontColor=default;" edge="1" parent="jZVaUwOg5UY3L9NAnvdq-71" source="ZDBsu4EC3AdljTK3YI5a-47" target="ZDBsu4EC3AdljTK3YI5a-4">
          <mxGeometry relative="1" as="geometry" />
        </mxCell>
        <mxCell id="ZDBsu4EC3AdljTK3YI5a-47" value="" style="sketch=0;points=[[0,0,0],[0.25,0,0],[0.5,0,0],[0.75,0,0],[1,0,0],[0,1,0],[0.25,1,0],[0.5,1,0],[0.75,1,0],[1,1,0],[0,0.25,0],[0,0.5,0],[0,0.75,0],[1,0.25,0],[1,0.5,0],[1,0.75,0]];outlineConnect=0;fontColor=#232F3E;fillColor=#8C4FFF;strokeColor=#ffffff;dashed=0;verticalLabelPosition=bottom;verticalAlign=top;align=center;html=1;fontSize=12;fontStyle=0;aspect=fixed;shape=mxgraph.aws4.resourceIcon;resIcon=mxgraph.aws4.cloudfront;fontFamily=Helvetica;" vertex="1" parent="jZVaUwOg5UY3L9NAnvdq-71">
          <mxGeometry x="480" y="58" width="70" height="70" as="geometry" />
        </mxCell>
        <mxCell id="ZDBsu4EC3AdljTK3YI5a-87" style="edgeStyle=orthogonalEdgeStyle;rounded=0;orthogonalLoop=1;jettySize=auto;html=1;entryX=1;entryY=0.5;entryDx=0;entryDy=0;entryPerimeter=0;fontFamily=Helvetica;fontSize=12;fontColor=default;" edge="1" parent="jZVaUwOg5UY3L9NAnvdq-71" source="ZDBsu4EC3AdljTK3YI5a-50" target="ZDBsu4EC3AdljTK3YI5a-47">
          <mxGeometry relative="1" as="geometry">
            <Array as="points">
              <mxPoint x="750" y="93" />
            </Array>
          </mxGeometry>
        </mxCell>
        <mxCell id="jZVaUwOg5UY3L9NAnvdq-121" value="" style="edgeStyle=elbowEdgeStyle;rounded=0;orthogonalLoop=1;jettySize=auto;html=1;endArrow=open;endFill=0;strokeColor=#545B64;strokeWidth=2;fontSize=14;" parent="1" edge="1">
          <mxGeometry relative="1" as="geometry">
            <mxPoint x="580" y="1940" as="sourcePoint" />
            <mxPoint x="726.545454545454" y="1940" as="targetPoint" />
            <Array as="points" />
          </mxGeometry>
        </mxCell>
        <mxCell id="-QjtrjUzRDEMRZ5MF8oH-47" value="Summit Solutions Architecture Diagram" style="text;html=1;resizable=0;points=[];autosize=1;align=left;verticalAlign=top;spacingTop=-4;fontSize=30;fontStyle=1;labelBackgroundColor=none;" parent="1" vertex="1">
          <mxGeometry x="36.5" y="26.5" width="590" height="40" as="geometry" />
        </mxCell>
        <mxCell id="-QjtrjUzRDEMRZ5MF8oH-48" value="Moodle LMS Application" style="text;html=1;resizable=0;points=[];autosize=1;align=left;verticalAlign=top;spacingTop=-4;fontSize=16;labelBackgroundColor=none;" parent="1" vertex="1">
          <mxGeometry x="36.5" y="76.5" width="200" height="30" as="geometry" />
        </mxCell>
        <mxCell id="SCVMTBWpLvtzJIhz15lM-1" value="" style="line;strokeWidth=2;html=1;fontSize=14;labelBackgroundColor=none;" parent="1" vertex="1">
          <mxGeometry x="32.5" y="101.5" width="1247.5" height="10" as="geometry" />
        </mxCell>
        <mxCell id="jZVaUwOg5UY3L9NAnvdq-59" value="Actors" style="swimlane;fontSize=14;align=center;swimlaneFillColor=#f4f4f4;fillColor=#f4f4f4;startSize=33;container=1;pointerEvents=0;collapsible=0;recursiveResize=0;" parent="1" vertex="1">
          <mxGeometry x="36.5" y="120" width="200" height="182" as="geometry" />
        </mxCell>
        <mxCell id="jZVaUwOg5UY3L9NAnvdq-60" value="User" style="outlineConnect=0;fontColor=#232F3E;gradientColor=none;fillColor=#232F3E;strokeColor=none;dashed=0;verticalLabelPosition=bottom;verticalAlign=top;align=center;html=1;fontSize=12;fontStyle=0;aspect=fixed;pointerEvents=1;shape=mxgraph.aws4.user;labelBackgroundColor=none;" parent="jZVaUwOg5UY3L9NAnvdq-59" vertex="1">
          <mxGeometry x="16" y="54" width="78" height="78" as="geometry" />
        </mxCell>
        <mxCell id="jZVaUwOg5UY3L9NAnvdq-61" value="Payers" style="outlineConnect=0;fontColor=#232F3E;gradientColor=none;fillColor=#232F3E;strokeColor=none;dashed=0;verticalLabelPosition=bottom;verticalAlign=top;align=center;html=1;fontSize=12;fontStyle=0;aspect=fixed;pointerEvents=1;shape=mxgraph.aws4.corporate_data_center;labelBackgroundColor=none;" parent="jZVaUwOg5UY3L9NAnvdq-59" vertex="1">
          <mxGeometry x="130" y="54" width="53" height="78" as="geometry" />
        </mxCell>
        <mxCell id="ZDBsu4EC3AdljTK3YI5a-57" style="edgeStyle=orthogonalEdgeStyle;rounded=0;orthogonalLoop=1;jettySize=auto;html=1;fontFamily=Helvetica;fontSize=12;fontColor=default;" edge="1" parent="1" source="jZVaUwOg5UY3L9NAnvdq-61" target="ZDBsu4EC3AdljTK3YI5a-45">
          <mxGeometry relative="1" as="geometry" />
        </mxCell>
        <mxCell id="ZDBsu4EC3AdljTK3YI5a-69" value="Channels" style="swimlane;fontSize=14;align=center;swimlaneFillColor=#f4f4f4;fillColor=#f4f4f4;startSize=33;container=1;pointerEvents=0;collapsible=0;recursiveResize=0;" vertex="1" parent="1">
          <mxGeometry x="40" y="420" width="196.5" height="1100" as="geometry" />
        </mxCell>
        <mxCell id="jZVaUwOg5UY3L9NAnvdq-73" value="Amazon S3" style="outlineConnect=0;fontColor=#232F3E;gradientColor=#60A337;gradientDirection=north;fillColor=#277116;strokeColor=#ffffff;dashed=0;verticalLabelPosition=bottom;verticalAlign=top;align=center;html=1;fontSize=12;fontStyle=0;aspect=fixed;shape=mxgraph.aws4.resourceIcon;resIcon=mxgraph.aws4.s3;labelBackgroundColor=none;" parent="ZDBsu4EC3AdljTK3YI5a-69" vertex="1">
          <mxGeometry x="62.5" y="100" width="75" height="75" as="geometry" />
        </mxCell>
        <mxCell id="ZDBsu4EC3AdljTK3YI5a-77" value="" style="sketch=0;outlineConnect=0;fontColor=#232F3E;gradientColor=none;fillColor=#7AA116;strokeColor=none;dashed=0;verticalLabelPosition=bottom;verticalAlign=top;align=center;html=1;fontSize=12;fontStyle=0;aspect=fixed;pointerEvents=1;shape=mxgraph.aws4.bucket_with_objects;fontFamily=Helvetica;" vertex="1" parent="ZDBsu4EC3AdljTK3YI5a-69">
          <mxGeometry x="62.5" y="270" width="75" height="78" as="geometry" />
        </mxCell>
        <mxCell id="ZDBsu4EC3AdljTK3YI5a-78" value="&lt;font style=&quot;font-size: 16px;&quot;&gt;S3 Bucket for files&lt;/font&gt;" style="text;html=1;strokeColor=none;fillColor=none;align=center;verticalAlign=middle;whiteSpace=wrap;rounded=0;fontSize=12;fontFamily=Helvetica;fontColor=default;" vertex="1" parent="ZDBsu4EC3AdljTK3YI5a-69">
          <mxGeometry x="35" y="348" width="130" height="30" as="geometry" />
        </mxCell>
        <mxCell id="ZDBsu4EC3AdljTK3YI5a-81" value="" style="sketch=0;points=[[0,0,0],[0.25,0,0],[0.5,0,0],[0.75,0,0],[1,0,0],[0,1,0],[0.25,1,0],[0.5,1,0],[0.75,1,0],[1,1,0],[0,0.25,0],[0,0.5,0],[0,0.75,0],[1,0.25,0],[1,0.5,0],[1,0.75,0]];points=[[0,0,0],[0.25,0,0],[0.5,0,0],[0.75,0,0],[1,0,0],[0,1,0],[0.25,1,0],[0.5,1,0],[0.75,1,0],[1,1,0],[0,0.25,0],[0,0.5,0],[0,0.75,0],[1,0.25,0],[1,0.5,0],[1,0.75,0]];outlineConnect=0;fontColor=#232F3E;fillColor=#E7157B;strokeColor=#ffffff;dashed=0;verticalLabelPosition=bottom;verticalAlign=top;align=center;html=1;fontSize=12;fontStyle=0;aspect=fixed;shape=mxgraph.aws4.resourceIcon;resIcon=mxgraph.aws4.cloudwatch_2;fontFamily=Helvetica;" vertex="1" parent="ZDBsu4EC3AdljTK3YI5a-69">
          <mxGeometry x="65" y="440" width="75" height="75" as="geometry" />
        </mxCell>
        <mxCell id="ZDBsu4EC3AdljTK3YI5a-82" value="&lt;font style=&quot;font-size: 16px;&quot;&gt;Amazon Cloudwatch&lt;/font&gt;" style="text;html=1;strokeColor=none;fillColor=none;align=center;verticalAlign=middle;whiteSpace=wrap;rounded=0;fontSize=12;fontFamily=Helvetica;fontColor=default;" vertex="1" parent="ZDBsu4EC3AdljTK3YI5a-69">
          <mxGeometry x="22.5" y="520" width="155" height="30" as="geometry" />
        </mxCell>
        <mxCell id="ZDBsu4EC3AdljTK3YI5a-80" value="&lt;font style=&quot;font-size: 16px;&quot;&gt;Amazon CloudTrail&lt;font style=&quot;font-size: 16px;&quot;&gt;&lt;br&gt;&lt;/font&gt;&lt;/font&gt;" style="text;html=1;strokeColor=none;fillColor=none;align=center;verticalAlign=middle;whiteSpace=wrap;rounded=0;fontSize=12;fontFamily=Helvetica;fontColor=default;" vertex="1" parent="ZDBsu4EC3AdljTK3YI5a-69">
          <mxGeometry x="7.5" y="670" width="170" height="30" as="geometry" />
        </mxCell>
        <mxCell id="ZDBsu4EC3AdljTK3YI5a-83" value="" style="sketch=0;points=[[0,0,0],[0.25,0,0],[0.5,0,0],[0.75,0,0],[1,0,0],[0,1,0],[0.25,1,0],[0.5,1,0],[0.75,1,0],[1,1,0],[0,0.25,0],[0,0.5,0],[0,0.75,0],[1,0.25,0],[1,0.5,0],[1,0.75,0]];points=[[0,0,0],[0.25,0,0],[0.5,0,0],[0.75,0,0],[1,0,0],[0,1,0],[0.25,1,0],[0.5,1,0],[0.75,1,0],[1,1,0],[0,0.25,0],[0,0.5,0],[0,0.75,0],[1,0.25,0],[1,0.5,0],[1,0.75,0]];outlineConnect=0;fontColor=#232F3E;fillColor=#E7157B;strokeColor=#ffffff;dashed=0;verticalLabelPosition=bottom;verticalAlign=top;align=center;html=1;fontSize=12;fontStyle=0;aspect=fixed;shape=mxgraph.aws4.resourceIcon;resIcon=mxgraph.aws4.cloudtrail;fontFamily=Helvetica;" vertex="1" parent="ZDBsu4EC3AdljTK3YI5a-69">
          <mxGeometry x="62.5" y="600" width="75" height="75" as="geometry" />
        </mxCell>
        <mxCell id="ZDBsu4EC3AdljTK3YI5a-84" value="" style="sketch=0;points=[[0,0,0],[0.25,0,0],[0.5,0,0],[0.75,0,0],[1,0,0],[0,1,0],[0.25,1,0],[0.5,1,0],[0.75,1,0],[1,1,0],[0,0.25,0],[0,0.5,0],[0,0.75,0],[1,0.25,0],[1,0.5,0],[1,0.75,0]];outlineConnect=0;fontColor=#232F3E;fillColor=#E7157B;strokeColor=#ffffff;dashed=0;verticalLabelPosition=bottom;verticalAlign=top;align=center;html=1;fontSize=12;fontStyle=0;aspect=fixed;shape=mxgraph.aws4.resourceIcon;resIcon=mxgraph.aws4.sns;fontFamily=Helvetica;" vertex="1" parent="ZDBsu4EC3AdljTK3YI5a-69">
          <mxGeometry x="62.5" y="770" width="75" height="75" as="geometry" />
        </mxCell>
        <mxCell id="ZDBsu4EC3AdljTK3YI5a-85" value="&lt;font style=&quot;font-size: 16px;&quot;&gt;SNS&lt;/font&gt;" style="text;html=1;strokeColor=none;fillColor=none;align=center;verticalAlign=middle;whiteSpace=wrap;rounded=0;fontSize=12;fontFamily=Helvetica;fontColor=default;" vertex="1" parent="ZDBsu4EC3AdljTK3YI5a-69">
          <mxGeometry x="68.25" y="845" width="60" height="30" as="geometry" />
        </mxCell>
      </root>
    </mxGraphModel>
  </diagram>
</mxfile>
